<?xml version="1.0" encoding="utf-8"?>
<!-- Generator: Adobe Illustrator 22.0.1, SVG Export Plug-In . SVG Version: 6.00 Build 0)  -->
<svg version="1.1" id="Layer_1" xmlns="http://www.w3.org/2000/svg" xmlns:xlink="http://www.w3.org/1999/xlink" x="0px" y="0px"
	 viewBox="0 0 256 400" style="enable-background:new 0 0 256 400;" xml:space="preserve">
<style type="text/css">
	.st0{fill:#6762A6;}
	.st1{fill:#FFFFFF;}
</style>
<g>
	<path class="st0" d="M28.1,398.3v-34.8c0-2.5-1.8-3.5-3.9-3.5c-4.2,0-9.6,1.1-14.4,3.2v35.1H0v-64.6h9.8V355
		c4.7-1.7,10.2-3.2,15.8-3.2c8.9,0,12.2,5.5,12.2,13v33.5L28.1,398.3L28.1,398.3L28.1,398.3z M56.1,377.2c0.3,11.7,2.6,14,9.8,14
		c5.6,0,12-1.9,16.9-3.8l1.6,7.3c-5.2,2.4-11.6,4.7-19.2,4.7c-16.3,0-18.9-9-18.9-23.3c0-7.8,0.6-14.9,2.5-21.5
		c4.9-1.9,11.4-2.9,19.7-2.9c13.4,0,17.5,7.4,17.5,20.4v5L56.1,377.2L56.1,377.2L56.1,377.2z M68.5,360c-2.9,0-7.6,0.1-11.4,0.8
		c-0.4,2-0.9,4.7-1.1,9.6h20.4C76.4,363.7,75.2,360,68.5,360L68.5,360L68.5,360z M104.3,363.2v35.1h-9.8v-39.5
		c8.2-4.5,17-5.9,22.7-6.3v8.2C113.2,361,108.2,361.5,104.3,363.2L104.3,363.2L104.3,363.2z M143.1,399.4
		c-14.6,0-21.2-7.2-21.2-23.6c0-17.4,8.7-24,21.2-24c14.6,0,21.2,7.2,21.2,23.6C164.3,392.8,155.6,399.4,143.1,399.4L143.1,399.4
		L143.1,399.4z M143.1,360c-7.5,0-11.7,4.3-11.7,15.8c0,12.6,3.5,15.3,11.7,15.3c7.5,0,11.7-4.2,11.7-15.8
		C154.8,362.9,151.3,360,143.1,360L143.1,360L143.1,360z M211.6,398.3h-11.5c-2.7-7.2-6.5-14.5-12.2-20.9h-5.1v20.9h-9.8v-64.6h9.8
		v37.1h4.6c5-5.1,8.8-11.5,11.5-17.8h11c-3.8,7.6-8.6,14.3-14,19.8C202.3,380.9,207.3,389.6,211.6,398.3L211.6,398.3L211.6,398.3z
		 M230,399.4c-8.9,0-12.2-5.5-12.2-13V353h9.7v34.7c0,2.5,1.8,3.5,3.9,3.5c4.2,0,10-1.1,14.9-3.2v-35h9.8v39.4
		C244.4,398.7,235.5,399.4,230,399.4L230,399.4L230,399.4z"/>
	<g>
		<path class="st0" d="M225.6,317.3H30.3C13.5,317.3,0,303.7,0,287V30.3C0,13.5,13.5,0,30.3,0h195.4c16.7,0,30.3,13.5,30.3,30.3V287
			C255.9,303.7,242.3,317.3,225.6,317.3L225.6,317.3L225.6,317.3z"/>
		<path class="st1" d="M160.4,273.6v-126c0,0,8.2-30.1-100.9,12.3c-0.2,0.5-0.2-116.5-0.2-116.5l35.7-0.2v75
			c0,0,99.8-39.3,99.8,29.8v125.6L160.4,273.6L160.4,273.6L160.4,273.6z M180.7,88.6h-37.8c13.6-16.6,25.9-45.2,25.9-45.2h39.1
			C207.9,43.4,201.2,62,180.7,88.6L180.7,88.6L180.7,88.6z M59.9,273.4v-71.7l35.9,35.9L59.9,273.4L59.9,273.4z"/>
	</g>
</g>
</svg>
